
<svg width="301" height="94" viewBox="0 0 301 94" fill="none" xmlns="http://www.w3.org/2000/svg">
<path d="M121.606 65.8944H122.602L128.474 73.3468V65.8944H129.505V75.2013H128.68L122.636 67.5772V75.2356H121.606V65.8944Z" fill="#4F4B4A"/>
<path d="M136.407 75.3387C135.824 75.3387 135.308 75.2357 134.828 75.0639C134.347 74.8922 133.935 74.6175 133.591 74.3084C133.248 73.965 132.973 73.5529 132.801 73.0377C132.63 72.5226 132.527 71.9388 132.527 71.2863V65.8601H133.591V71.2176C133.591 72.2135 133.832 73.0034 134.347 73.5529C134.862 74.1024 135.549 74.3771 136.442 74.3771C137.3 74.3771 137.987 74.1367 138.502 73.6216C139.017 73.1064 139.258 72.3509 139.258 71.3206V65.8945H140.322V71.2176C140.322 71.9044 140.219 72.4883 140.048 73.0034C139.876 73.5185 139.601 73.965 139.258 74.3084C138.914 74.6518 138.502 74.9266 138.021 75.0983C137.506 75.27 136.991 75.3387 136.407 75.3387ZM137.163 63.1814L138.227 63.6622L136.716 65.1046H135.892L137.163 63.1814Z" fill="#4F4B4A"/>
<path d="M147.569 75.3729C146.882 75.3729 146.264 75.2356 145.714 74.9952C145.131 74.7548 144.65 74.4113 144.238 73.9649C143.826 73.5184 143.482 73.0376 143.276 72.4538C143.036 71.87 142.933 71.2518 142.933 70.565V70.5306C142.933 69.8781 143.036 69.2599 143.276 68.6761C143.516 68.0923 143.826 67.5772 144.238 67.1307C144.65 66.6842 145.165 66.3408 145.714 66.1004C146.298 65.86 146.916 65.7227 147.603 65.7227C148.015 65.7227 148.427 65.757 148.771 65.8257C149.114 65.8944 149.423 65.9974 149.732 66.1348C150.042 66.2721 150.282 66.4095 150.557 66.6156C150.831 66.8216 151.037 66.9933 151.278 67.2337L150.557 67.9893C150.145 67.6115 149.732 67.3024 149.286 67.062C148.84 66.8216 148.29 66.7186 147.638 66.7186C147.122 66.7186 146.642 66.8216 146.195 67.0277C145.749 67.2337 145.371 67.5085 145.062 67.8519C144.753 68.1953 144.478 68.6074 144.306 69.0539C144.135 69.5347 144.032 70.0155 144.032 70.565V70.5993C144.032 71.1488 144.135 71.6296 144.306 72.1104C144.478 72.5912 144.753 72.9689 145.062 73.3124C145.371 73.6558 145.783 73.9305 146.195 74.1366C146.642 74.3427 147.122 74.4457 147.638 74.4457C148.29 74.4457 148.84 74.3427 149.286 74.1023C149.732 73.8619 150.213 73.5528 150.66 73.1063L151.347 73.7932C151.106 74.0336 150.866 74.274 150.591 74.48C150.316 74.6861 150.042 74.8578 149.732 74.9952C149.423 75.1325 149.114 75.2356 148.771 75.3386C148.359 75.3386 147.981 75.3729 147.569 75.3729Z" fill="#4F4B4A"/>
<path d="M153.647 65.8944H154.712V74.2397H159.967V75.2013H153.682V65.8944H153.647Z" fill="#4F4B4A"/>
<path d="M162.439 65.8944H169.17V66.856H163.504V70.0499H168.587V71.0115H163.504V74.274H169.239V75.2356H162.439V65.8944V65.8944Z" fill="#4F4B4A"/>
<path d="M176.21 75.3729C175.489 75.3729 174.871 75.2356 174.287 74.9952C173.703 74.7548 173.223 74.377 172.776 73.9649C172.364 73.5184 172.021 73.0033 171.815 72.4195C171.574 71.8356 171.471 71.2175 171.471 70.5993V70.565C171.471 69.9125 171.574 69.3286 171.815 68.7105C172.055 68.1266 172.364 67.6115 172.776 67.165C173.188 66.7186 173.703 66.3752 174.287 66.1004C174.871 65.8257 175.524 65.7227 176.245 65.7227C176.966 65.7227 177.584 65.86 178.168 66.1004C178.752 66.3752 179.233 66.7186 179.679 67.1307C180.091 67.5772 180.435 68.0923 180.641 68.6761C180.881 69.2599 180.984 69.8781 180.984 70.4963V70.5306C180.984 71.1831 180.881 71.767 180.641 72.3508C180.4 72.9346 180.091 73.4497 179.679 73.8962C179.267 74.3427 178.752 74.6861 178.168 74.9608C177.584 75.2356 176.932 75.3729 176.21 75.3729ZM176.245 74.377C176.794 74.377 177.275 74.274 177.722 74.0679C178.168 73.8619 178.546 73.5871 178.889 73.2437C179.233 72.9003 179.473 72.4882 179.645 72.0417C179.816 71.5952 179.919 71.0801 179.919 70.565V70.5306C179.919 69.9811 179.816 69.5003 179.645 69.0195C179.473 68.5387 179.198 68.161 178.889 67.8176C178.58 67.4741 178.168 67.1994 177.722 66.9933C177.275 66.7873 176.794 66.6843 176.245 66.6843C175.695 66.6843 175.215 66.7873 174.768 66.9933C174.322 67.1994 173.944 67.4741 173.6 67.8176C173.257 68.161 173.017 68.5731 172.845 69.0195C172.673 69.466 172.57 69.9811 172.57 70.4963V70.5306C172.57 71.0801 172.673 71.5609 172.845 72.0417C173.017 72.5225 173.291 72.9003 173.6 73.2437C173.944 73.5871 174.322 73.8619 174.768 74.0679C175.215 74.274 175.695 74.377 176.245 74.377Z" fill="#4F4B4A"/>
<path d="M191.699 65.8258H192.695L196.953 75.2013H195.82L194.721 72.7287H189.638L188.539 75.2013H187.475L191.699 65.8258ZM194.309 71.8014L192.18 67.0621L190.051 71.8014H194.309Z" fill="#4F4B4A"/>
<path d="M198.533 65.8944H199.701L203.032 73.9306L206.363 65.8944H207.497L203.479 75.2699H202.551L198.533 65.8944Z" fill="#4F4B4A"/>
<path d="M213.266 65.8258H214.262L218.521 75.2013H217.387L216.288 72.7287H211.206L210.107 75.2013H209.042L213.266 65.8258ZM215.876 71.8014L213.747 67.0621L211.618 71.8014H215.876Z" fill="#4F4B4A"/>
<path d="M220.89 65.8944H221.886L227.759 73.3468V65.8944H228.789V75.2013H227.965L221.955 67.5429V75.2013H220.925V65.8944H220.89Z" fill="#4F4B4A"/>
<path d="M234.524 76.8154L235.555 75.3387C234.971 75.27 234.421 75.0983 233.941 74.8235C233.46 74.5488 233.013 74.2054 232.67 73.7933C232.327 73.3811 232.052 72.9004 231.846 72.3509C231.64 71.8014 231.537 71.2176 231.537 70.5994V70.565C231.537 69.9125 231.64 69.2944 231.88 68.7105C232.12 68.1267 232.43 67.6116 232.842 67.1651C233.254 66.7187 233.769 66.3752 234.318 66.1349C234.902 65.8945 235.52 65.7571 236.207 65.7571C236.619 65.7571 237.031 65.7914 237.375 65.8601C237.718 65.9288 238.027 66.0318 238.336 66.1692C238.646 66.3066 238.886 66.4439 239.161 66.65C239.401 66.8217 239.641 67.0278 239.882 67.2682L239.161 68.0237C238.749 67.6459 238.336 67.3368 237.89 67.0964C237.444 66.856 236.894 66.753 236.242 66.753C235.726 66.753 235.246 66.856 234.799 67.0621C234.353 67.2682 233.975 67.5429 233.666 67.8863C233.357 68.2298 233.082 68.6419 232.91 69.0883C232.739 69.5691 232.636 70.0499 232.636 70.5994V70.6337C232.636 71.1832 232.739 71.664 232.91 72.1448C233.082 72.6256 233.357 73.0034 233.666 73.3468C233.975 73.6902 234.387 73.965 234.799 74.171C235.246 74.3771 235.726 74.4801 236.242 74.4801C236.894 74.4801 237.444 74.3771 237.89 74.1367C238.336 73.8963 238.817 73.5872 239.264 73.1407L239.951 73.8276C239.71 74.068 239.47 74.274 239.229 74.4801C238.989 74.6862 238.714 74.8235 238.44 74.9952C238.165 75.1326 237.856 75.2356 237.512 75.3387C237.169 75.4074 236.825 75.476 236.448 75.476L235.555 77.3649L234.524 76.8154Z" fill="#4F4B4A"/>
<path d="M245.754 65.8258H246.75L251.009 75.2013H249.876L248.777 72.7287H243.694L242.595 75.2013H241.53L245.754 65.8258ZM248.33 71.8014L246.201 67.0621L244.072 71.8014H248.33Z" fill="#4F4B4A"/>
<path d="M253.344 65.8944H256.572C257.293 65.8944 257.98 65.9974 258.564 66.2378C259.148 66.4782 259.697 66.7873 260.144 67.1994C260.59 67.6115 260.934 68.0923 261.174 68.6762C261.415 69.2256 261.518 69.8438 261.518 70.4963V70.5307C261.518 71.1832 261.415 71.8013 261.174 72.3508C260.934 72.9346 260.59 73.4154 260.144 73.8276C259.697 74.2397 259.182 74.5831 258.564 74.8235C257.946 75.0639 257.293 75.1669 256.572 75.1669H253.344V65.8944ZM256.572 74.2397C257.156 74.2397 257.706 74.1366 258.186 73.9649C258.667 73.7932 259.079 73.5185 259.388 73.2094C259.732 72.866 259.972 72.4882 260.144 72.0417C260.316 71.5953 260.419 71.1145 260.419 70.5993V70.565C260.419 70.0499 260.316 69.5691 260.144 69.1226C259.972 68.6762 259.697 68.2984 259.388 67.955C259.045 67.6115 258.633 67.3711 258.186 67.1651C257.706 66.959 257.19 66.8903 256.572 66.8903H254.374V74.274H256.572V74.2397Z" fill="#4F4B4A"/>
<path d="M268.626 75.3729C267.905 75.3729 267.287 75.2356 266.703 74.9952C266.119 74.7548 265.639 74.377 265.192 73.9649C264.78 73.5184 264.437 73.0033 264.231 72.4195C263.99 71.8356 263.887 71.2175 263.887 70.5993V70.565C263.887 69.9125 263.99 69.3286 264.231 68.7105C264.471 68.1266 264.78 67.6115 265.192 67.165C265.604 66.7186 266.119 66.3752 266.703 66.1004C267.287 65.8257 267.94 65.7227 268.661 65.7227C269.382 65.7227 270 65.86 270.584 66.1004C271.168 66.3752 271.649 66.7186 272.095 67.1307C272.507 67.5772 272.851 68.0923 273.057 68.6761C273.297 69.2599 273.4 69.8781 273.4 70.4963V70.5306C273.4 71.1831 273.297 71.767 273.057 72.3508C272.816 72.9346 272.507 73.4497 272.095 73.8962C271.683 74.3427 271.168 74.6861 270.584 74.9608C270 75.2356 269.313 75.3729 268.626 75.3729ZM268.626 74.377C269.176 74.377 269.657 74.274 270.103 74.0679C270.55 73.8619 270.927 73.5871 271.271 73.2437C271.614 72.9003 271.855 72.4882 272.026 72.0417C272.198 71.5952 272.301 71.0801 272.301 70.565V70.5306C272.301 69.9811 272.198 69.5003 272.026 69.0195C271.855 68.5387 271.58 68.161 271.271 67.8176C270.962 67.4741 270.55 67.1994 270.103 66.9933C269.657 66.7873 269.176 66.6843 268.626 66.6843C268.077 66.6843 267.596 66.7873 267.15 66.9933C266.703 67.1994 266.326 67.4741 265.982 67.8176C265.639 68.161 265.398 68.5731 265.227 69.0195C265.055 69.466 264.952 69.9811 264.952 70.4963V70.5306C264.952 71.0801 265.055 71.5609 265.227 72.0417C265.398 72.5225 265.673 72.9003 265.982 73.2437C266.326 73.5871 266.703 73.8619 267.15 74.0679C267.596 74.274 268.111 74.377 268.626 74.377Z" fill="#4F4B4A"/>
<path d="M280.681 65.8944H283.909C284.63 65.8944 285.317 65.9974 285.901 66.2378C286.485 66.4782 287.034 66.7873 287.48 67.1994C287.927 67.6115 288.27 68.0923 288.511 68.6762C288.751 69.2256 288.854 69.8438 288.854 70.4963V70.5307C288.854 71.1832 288.751 71.8013 288.511 72.3508C288.27 72.9346 287.927 73.4154 287.48 73.8276C287.034 74.2397 286.519 74.5831 285.901 74.8235C285.283 75.0639 284.63 75.1669 283.909 75.1669H280.681V65.8944ZM283.909 74.2397C284.493 74.2397 285.042 74.1366 285.523 73.9649C286.004 73.7932 286.416 73.5185 286.725 73.2094C287.068 72.866 287.309 72.4882 287.48 72.0417C287.652 71.5953 287.755 71.1145 287.755 70.5993V70.565C287.755 70.0499 287.652 69.5691 287.48 69.1226C287.309 68.6762 287.034 68.2984 286.725 67.955C286.382 67.6115 285.969 67.3711 285.523 67.1651C285.042 66.959 284.527 66.8903 283.909 66.8903H281.711V74.274H283.909V74.2397Z" fill="#4F4B4A"/>
<path d="M291.602 65.8944H298.333V66.856H292.632V70.0499H297.715V71.0115H292.632V74.274H298.367V75.2356H291.602V65.8944Z" fill="#4F4B4A"/>
<path d="M121.709 81.8638H122.773V91.1706H121.709V81.8638Z" fill="#4F4B4A"/>
<path d="M125.212 81.8638H126.208L132.08 89.3505V81.8638H133.11V91.1706H132.252L126.242 83.5122V91.1706H125.212V81.8638Z" fill="#4F4B4A"/>
<path d="M139.807 91.3423C139.086 91.3423 138.468 91.2049 137.884 90.9645C137.3 90.7241 136.82 90.3464 136.373 89.9342C135.927 89.5221 135.618 88.9727 135.412 88.3888C135.171 87.805 135.068 87.1868 135.068 86.5687V86.5343C135.068 85.8818 135.171 85.298 135.412 84.6798C135.652 84.096 135.961 83.5809 136.373 83.1344C136.785 82.688 137.3 82.3445 137.884 82.0698C138.468 81.795 139.121 81.692 139.842 81.692C140.563 81.692 141.181 81.8294 141.765 82.0698C142.349 82.3445 142.83 82.688 143.276 83.1001C143.688 83.5465 144.032 84.0617 144.238 84.6455C144.478 85.2293 144.581 85.8475 144.581 86.4656V86.5C144.581 87.1525 144.478 87.7363 144.238 88.3545C143.997 88.9383 143.688 89.4535 143.276 89.8999C142.864 90.3464 142.349 90.6898 141.765 90.9645C141.147 91.2049 140.494 91.3423 139.807 91.3423ZM139.842 90.3807C140.391 90.3807 140.872 90.2777 141.318 90.0716C141.765 89.8656 142.143 89.5908 142.486 89.2474C142.795 88.904 143.07 88.4919 143.242 88.0454C143.413 87.5989 143.516 87.0838 143.516 86.5687V86.5343C143.516 85.9848 143.413 85.5041 143.242 85.0233C143.07 84.5425 142.795 84.1647 142.486 83.8213C142.143 83.4778 141.765 83.2031 141.318 82.997C140.872 82.791 140.391 82.688 139.842 82.688C139.292 82.688 138.811 82.791 138.365 82.997C137.919 83.2031 137.541 83.4778 137.197 83.8213C136.888 84.1647 136.614 84.5768 136.442 85.0233C136.27 85.4697 136.167 85.9848 136.167 86.5V86.5343C136.167 87.0838 136.27 87.5646 136.442 88.0454C136.614 88.5262 136.888 88.904 137.197 89.2474C137.541 89.5908 137.919 89.8656 138.365 90.0716C138.811 90.2777 139.292 90.3807 139.842 90.3807Z" fill="#4F4B4A"/>
<path d="M145.714 81.8638H146.882L150.213 89.9L153.544 81.8638H154.678L150.66 91.2393H149.732L145.714 81.8638Z" fill="#4F4B4A"/>
<path d="M159.692 81.795H160.688L164.946 91.1706H163.813L162.714 88.6979H157.631L156.532 91.1706H155.468L159.692 81.795ZM162.302 87.7707L160.172 83.0314L158.043 87.7707H162.302Z" fill="#4F4B4A"/>
<path d="M169.102 92.7846L170.132 91.3079C169.548 91.2392 168.999 91.0675 168.518 90.7928C168.037 90.518 167.591 90.1746 167.247 89.7625C166.904 89.3504 166.629 88.8696 166.423 88.3201C166.217 87.7706 166.114 87.1868 166.114 86.5686V86.5343C166.114 85.8818 166.217 85.2636 166.457 84.6798C166.698 84.096 167.007 83.5808 167.419 83.1344C167.831 82.6879 168.346 82.3445 168.896 82.1041C169.479 81.8637 170.098 81.7263 170.784 81.7263C171.196 81.7263 171.609 81.7607 171.952 81.8294C172.295 81.898 172.605 82.0011 172.914 82.1384C173.223 82.2758 173.463 82.4132 173.738 82.6192C173.978 82.7909 174.219 82.997 174.459 83.2374L173.738 83.9929C173.326 83.6152 172.914 83.3061 172.467 83.0657C172.021 82.8253 171.471 82.7223 170.819 82.7223C170.304 82.7223 169.823 82.8253 169.376 83.0313C168.93 83.2374 168.552 83.5121 168.243 83.8556C167.934 84.199 167.659 84.6111 167.487 85.0576C167.316 85.5384 167.213 86.0191 167.213 86.5686V86.603C167.213 87.1525 167.316 87.6333 167.487 88.114C167.659 88.5948 167.934 88.9726 168.243 89.316C168.552 89.6595 168.964 89.9342 169.376 90.1403C169.823 90.3463 170.304 90.4493 170.819 90.4493C171.471 90.4493 172.021 90.3463 172.467 90.1059C172.914 89.8655 173.394 89.5564 173.841 89.11L174.528 89.7968C174.287 90.0372 174.047 90.2433 173.807 90.4493C173.566 90.6554 173.291 90.7928 173.017 90.9645C172.742 91.1019 172.433 91.2049 172.089 91.3079C171.746 91.4109 171.403 91.4453 171.025 91.4453L170.132 93.3341L169.102 92.7846Z" fill="#4F4B4A"/>
<path d="M179.507 81.795H180.503L184.762 91.1706H183.628L182.53 88.6979H177.447L176.348 91.1706H175.283L179.507 81.795ZM177.825 80.9708C177.962 80.4557 178.134 80.1122 178.305 79.9062C178.511 79.7001 178.752 79.5971 179.061 79.5971C179.198 79.5971 179.37 79.6314 179.542 79.7001C179.713 79.7688 179.851 79.8031 180.022 79.8718C180.194 79.9405 180.332 80.0092 180.469 80.0435C180.606 80.1122 180.744 80.1122 180.847 80.1122C181.018 80.1122 181.156 80.0779 181.259 79.9749C181.362 79.8718 181.431 79.7001 181.534 79.4597L182.152 79.6314C182.014 80.1466 181.843 80.49 181.671 80.6961C181.499 80.9021 181.224 81.0051 180.915 81.0051C180.778 81.0051 180.606 80.9708 180.435 80.9365C180.263 80.8678 180.126 80.8334 179.954 80.7647C179.782 80.6961 179.645 80.6274 179.507 80.593C179.37 80.5587 179.233 80.49 179.13 80.49C178.958 80.49 178.82 80.5243 178.717 80.6274C178.614 80.7304 178.546 80.9021 178.443 81.1425L177.825 80.9708ZM182.083 87.7706L179.954 83.0314L177.825 87.7706H182.083Z" fill="#4F4B4A"/>
<path d="M190.634 91.3423C189.913 91.3423 189.295 91.2049 188.711 90.9645C188.127 90.7241 187.646 90.3464 187.2 89.9342C186.754 89.5221 186.445 88.9727 186.238 88.3888C185.998 87.805 185.895 87.1868 185.895 86.5687V86.5343C185.895 85.8818 185.998 85.298 186.238 84.6798C186.479 84.096 186.788 83.5809 187.2 83.1344C187.612 82.688 188.127 82.3445 188.711 82.0698C189.295 81.795 189.947 81.692 190.669 81.692C191.39 81.692 192.008 81.8294 192.592 82.0698C193.176 82.3445 193.656 82.688 194.103 83.1001C194.515 83.5465 194.858 84.0617 195.065 84.6455C195.305 85.2293 195.408 85.8475 195.408 86.4656V86.5C195.408 87.1525 195.305 87.7363 195.065 88.3545C194.824 88.9383 194.515 89.4535 194.103 89.8999C193.691 90.3464 193.176 90.6898 192.592 90.9645C192.008 91.2049 191.355 91.3423 190.634 91.3423ZM190.669 90.3807C191.218 90.3807 191.699 90.2777 192.145 90.0716C192.592 89.8656 192.97 89.5908 193.313 89.2474C193.622 88.904 193.897 88.4919 194.069 88.0454C194.24 87.5989 194.343 87.0838 194.343 86.5687V86.5343C194.343 85.9848 194.24 85.5041 194.069 85.0233C193.897 84.5425 193.622 84.1647 193.313 83.8213C193.004 83.4778 192.592 83.2031 192.145 82.997C191.699 82.791 191.218 82.688 190.669 82.688C190.119 82.688 189.638 82.791 189.192 82.997C188.745 83.2031 188.368 83.4778 188.024 83.8213C187.715 84.1647 187.44 84.5768 187.269 85.0233C187.097 85.4697 186.994 85.9848 186.994 86.5V86.5343C186.994 87.0838 187.097 87.5646 187.269 88.0454C187.44 88.5262 187.715 88.904 188.024 89.2474C188.368 89.5908 188.745 89.8656 189.192 90.0716C189.638 90.2777 190.119 90.3807 190.669 90.3807Z" fill="#4F4B4A"/>
<path d="M203.547 82.8254H200.422V81.8638H207.737V82.8254H204.612V91.1706H203.547V82.8254V82.8254Z" fill="#4F4B4A"/>
<path d="M209.454 81.8638H216.185V82.8254H210.485V86.0192H215.567V86.9808H210.485V90.2434H216.22V91.205H209.42V81.8638H209.454Z" fill="#4F4B4A"/>
<path d="M222.367 91.3423C221.68 91.3423 221.062 91.2049 220.512 90.9645C219.929 90.7241 219.448 90.3807 219.036 89.9342C218.624 89.4878 218.28 89.007 218.074 88.4232C217.834 87.8393 217.731 87.2212 217.731 86.5343V86.5C217.731 85.8475 217.834 85.2293 218.074 84.6455C218.315 84.0617 218.624 83.5465 219.036 83.1001C219.448 82.6536 219.963 82.3102 220.512 82.0698C221.096 81.8294 221.714 81.692 222.401 81.692C222.813 81.692 223.226 81.7264 223.569 81.7951C223.912 81.8637 224.221 81.9668 224.531 82.1041C224.84 82.2415 225.08 82.3789 225.355 82.5849C225.595 82.7566 225.836 82.9627 226.076 83.2031L225.355 83.9586C224.943 83.5809 224.531 83.2718 224.084 83.0314C223.638 82.791 223.088 82.688 222.436 82.688C221.92 82.688 221.44 82.791 220.993 82.997C220.547 83.2031 220.169 83.4778 219.86 83.8213C219.551 84.1647 219.276 84.5768 219.104 85.0233C218.933 85.5041 218.83 85.9848 218.83 86.5343V86.5687C218.83 87.1182 218.933 87.599 219.104 88.0797C219.276 88.5605 219.551 88.9383 219.86 89.2817C220.169 89.6252 220.581 89.8999 220.993 90.106C221.44 90.312 221.92 90.4151 222.436 90.4151C223.088 90.4151 223.638 90.312 224.084 90.0716C224.531 89.8312 225.011 89.5221 225.458 89.0757L226.145 89.7625C225.904 90.0029 225.664 90.2433 225.389 90.4494C225.114 90.6554 224.84 90.8272 224.531 90.9645C224.221 91.1019 223.912 91.2049 223.569 91.308C223.226 91.411 222.779 91.3423 222.367 91.3423Z" fill="#4F4B4A"/>
<path d="M227.656 81.8638H228.652L234.524 89.3505V81.8638H235.555V91.1706H234.73L228.72 83.5122V91.1706H227.69V81.8638H227.656Z" fill="#4F4B4A"/>
<path d="M242.251 91.3423C241.53 91.3423 240.912 91.2049 240.328 90.9645C239.744 90.7241 239.264 90.3464 238.817 89.9342C238.371 89.5221 238.062 88.9727 237.856 88.3888C237.615 87.805 237.512 87.1868 237.512 86.5687V86.5343C237.512 85.8818 237.615 85.298 237.856 84.6798C238.096 84.096 238.405 83.5809 238.817 83.1344C239.229 82.688 239.744 82.3445 240.328 82.0698C240.912 81.795 241.565 81.692 242.286 81.692C243.007 81.692 243.625 81.8294 244.209 82.0698C244.793 82.3445 245.274 82.688 245.72 83.1001C246.132 83.5465 246.476 84.0617 246.682 84.6455C246.922 85.2293 247.025 85.8475 247.025 86.4656V86.5C247.025 87.1525 246.922 87.7363 246.682 88.3545C246.441 88.9383 246.132 89.4535 245.72 89.8999C245.308 90.3464 244.793 90.6898 244.209 90.9645C243.591 91.2049 242.938 91.3423 242.251 91.3423ZM242.251 90.3807C242.801 90.3807 243.282 90.2777 243.728 90.0716C244.175 89.8656 244.552 89.5908 244.896 89.2474C245.205 88.904 245.48 88.4919 245.651 88.0454C245.823 87.5989 245.926 87.0838 245.926 86.5687V86.5343C245.926 85.9848 245.823 85.5041 245.651 85.0233C245.48 84.5425 245.205 84.1647 244.896 83.8213C244.587 83.4778 244.175 83.2031 243.728 82.997C243.282 82.791 242.801 82.688 242.251 82.688C241.702 82.688 241.221 82.791 240.775 82.997C240.328 83.2031 239.951 83.4778 239.607 83.8213C239.298 84.1647 239.023 84.5768 238.852 85.0233C238.68 85.4697 238.577 85.9848 238.577 86.5V86.5343C238.577 87.0838 238.68 87.5646 238.852 88.0454C239.023 88.5262 239.298 88.904 239.607 89.2474C239.951 89.5908 240.328 89.8656 240.775 90.0716C241.256 90.2777 241.736 90.3807 242.251 90.3807Z" fill="#4F4B4A"/>
<path d="M248.948 81.8638H250.013V90.209H255.267V91.1706H248.983V81.8638H248.948Z" fill="#4F4B4A"/>
<path d="M261.277 91.3423C260.556 91.3423 259.938 91.2049 259.354 90.9645C258.77 90.7241 258.289 90.3464 257.843 89.9343C257.396 89.5221 257.087 88.9727 256.881 88.3888C256.641 87.805 256.538 87.1869 256.538 86.5687V86.5343C256.538 85.8818 256.641 85.298 256.881 84.6798C257.122 84.096 257.431 83.5809 257.843 83.1344C258.255 82.688 258.77 82.3445 259.354 82.0698C259.938 81.7951 260.59 81.692 261.311 81.692C262.033 81.692 262.651 81.8294 263.235 82.0698C263.818 82.3445 264.299 82.688 264.746 83.1001C265.158 83.5465 265.501 84.0617 265.707 84.6455C265.948 85.2293 266.051 85.8475 266.051 86.4657V86.5C266.051 87.1525 265.948 87.7363 265.707 88.3545C265.467 88.9383 265.158 89.4535 264.746 89.8999C264.334 90.3464 263.818 90.6898 263.235 90.9645C262.616 91.2049 261.964 91.3423 261.277 91.3423ZM261.277 90.3807C261.827 90.3807 262.307 90.2777 262.754 90.0716C263.2 89.8656 263.578 89.5908 263.922 89.2474C264.231 88.904 264.505 88.4919 264.677 88.0454C264.849 87.599 264.952 87.0838 264.952 86.5687V86.5343C264.952 85.9849 264.849 85.5041 264.677 85.0233C264.505 84.5425 264.231 84.1647 263.922 83.8213C263.612 83.4779 263.2 83.2031 262.754 82.9971C262.307 82.791 261.827 82.688 261.277 82.688C260.728 82.688 260.247 82.791 259.8 82.9971C259.354 83.2031 258.976 83.4779 258.633 83.8213C258.324 84.1647 258.049 84.5768 257.877 85.0233C257.705 85.4697 257.602 85.9849 257.602 86.5V86.5343C257.602 87.0838 257.705 87.5646 257.877 88.0454C258.049 88.5262 258.324 88.904 258.633 89.2474C258.976 89.5908 259.354 89.8656 259.8 90.0716C260.281 90.2777 260.762 90.3807 261.277 90.3807ZM262.204 79.1163L263.269 79.5971L261.758 81.0395H260.934L262.204 79.1163Z" fill="#4F4B4A"/>
<path d="M272.301 91.3423C271.58 91.3423 270.893 91.2049 270.309 90.9645C269.726 90.7241 269.245 90.3807 268.833 89.9342C268.421 89.4877 268.112 89.007 267.871 88.4231C267.665 87.8393 267.562 87.2211 267.562 86.5686V86.5343C267.562 85.8818 267.665 85.298 267.905 84.7141C268.146 84.1303 268.455 83.6152 268.867 83.1687C269.279 82.7223 269.76 82.3788 270.344 82.1041C270.928 81.8293 271.546 81.7263 272.267 81.7263C272.645 81.7263 273.022 81.7607 273.332 81.795C273.641 81.8294 273.95 81.9324 274.224 82.0354C274.499 82.1384 274.774 82.2758 275.014 82.4132C275.255 82.5505 275.495 82.7566 275.736 82.9283L275.049 83.7182C274.877 83.5465 274.671 83.4091 274.499 83.2717C274.293 83.1344 274.087 83.0313 273.881 82.9283C273.675 82.8253 273.4 82.7566 273.126 82.7223C272.851 82.6536 272.542 82.6536 272.233 82.6536C271.717 82.6536 271.237 82.7566 270.825 82.9627C270.412 83.1687 270 83.4434 269.691 83.7869C269.382 84.1303 269.142 84.5424 268.97 84.9889C268.798 85.4697 268.695 85.9505 268.695 86.4656V86.4999C268.695 87.0494 268.798 87.5646 268.97 88.0454C269.142 88.5262 269.382 88.9383 269.726 89.2817C270.035 89.6251 270.447 89.8999 270.893 90.1059C271.34 90.312 271.855 90.415 272.439 90.415C272.988 90.415 273.469 90.312 273.95 90.1403C274.431 89.9685 274.808 89.7282 275.152 89.4878V87.1868H272.301V86.2252H276.148V89.9342C275.701 90.312 275.186 90.6554 274.534 90.9301C273.812 91.2049 273.091 91.3423 272.301 91.3423Z" fill="#4F4B4A"/>
<path d="M278.242 81.8638H279.307V91.1706H278.242V81.8638Z" fill="#4F4B4A"/>
<path d="M286.038 91.3423C285.352 91.3423 284.733 91.2049 284.184 90.9645C283.6 90.7241 283.119 90.3807 282.707 89.9342C282.295 89.4878 281.952 89.007 281.746 88.4232C281.505 87.8393 281.402 87.2212 281.402 86.5343V86.5C281.402 85.8475 281.505 85.2293 281.746 84.6455C281.986 84.0617 282.295 83.5465 282.707 83.1001C283.119 82.6536 283.634 82.3102 284.184 82.0698C284.768 81.8294 285.386 81.692 286.073 81.692C286.485 81.692 286.897 81.7264 287.24 81.7951C287.584 81.8637 287.893 81.9668 288.202 82.1041C288.511 82.2415 288.751 82.3789 289.026 82.5849C289.267 82.7566 289.507 82.9627 289.747 83.2031L289.026 83.9586C288.614 83.5809 288.202 83.2718 287.755 83.0314C287.309 82.791 286.76 82.688 286.107 82.688C285.592 82.688 285.111 82.791 284.665 82.997C284.218 83.2031 283.84 83.4778 283.531 83.8213C283.222 84.1647 282.948 84.5768 282.776 85.0233C282.604 85.5041 282.501 85.9848 282.501 86.5343V86.5687C282.501 87.1182 282.604 87.599 282.776 88.0797C282.948 88.5605 283.222 88.9383 283.531 89.2817C283.84 89.6252 284.253 89.8999 284.665 90.106C285.111 90.312 285.592 90.4151 286.107 90.4151C286.76 90.4151 287.309 90.312 287.755 90.0716C288.202 89.8312 288.683 89.5221 289.129 89.0757L289.816 89.7625C289.576 90.0029 289.335 90.2433 289.061 90.4494C288.786 90.6554 288.511 90.8272 288.202 90.9645C287.893 91.1019 287.584 91.2049 287.24 91.308C286.897 91.411 286.45 91.3423 286.038 91.3423Z" fill="#4F4B4A"/>
<path d="M294.796 81.795H295.792L300.05 91.1706H298.917L297.818 88.6979H292.735L291.636 91.1706H290.572L294.796 81.795ZM297.371 87.7707L295.242 83.0314L293.113 87.7707H297.371Z" fill="#4F4B4A"/>
<path d="M145.268 3.25342C130.981 3.25342 120.266 15.6168 120.266 29.5599V50.921C120.266 54.527 123.22 57.4804 126.826 57.4804C130.432 57.4804 133.385 54.527 133.385 50.921V29.5599C133.385 22.8631 138.228 16.441 145.268 16.441C152.308 16.441 157.15 22.8631 157.15 29.5599V50.921C157.15 54.527 160.104 57.4804 163.71 57.4804C167.316 57.4804 170.269 54.527 170.269 50.921V29.5599C170.269 15.6168 159.554 3.25342 145.268 3.25342Z" fill="#3D316A"/>
<path d="M271.099 4.6958C268.352 4.6958 265.913 6.37859 264.917 8.95429L253.516 38.798L241.702 8.8856C240.706 6.37859 238.268 4.6958 235.554 4.6958H235.486C230.815 4.6958 227.621 9.40074 229.338 13.7279L244.071 50.8866C245.754 55.0764 248.914 58.5794 253.687 58.5794C258.461 58.5794 261.621 54.836 263.2 50.7149L277.281 13.6249C278.929 9.29771 275.735 4.6958 271.099 4.6958Z" fill="#3D316A"/>
<path d="M201.864 3.35657C187.99 3.35657 176.726 15.1361 176.726 29.766V50.9554C176.726 54.5614 179.679 57.5149 183.285 57.5149H183.457C187.063 57.5149 190.016 54.5614 190.016 50.9554V29.766C190.016 22.4854 195.374 16.5785 201.899 16.5785C208.493 16.5785 213.85 22.5198 213.85 29.766V50.9554C213.85 54.5614 216.803 57.5149 220.409 57.5149H220.478C224.084 57.5149 227.038 54.5614 227.038 50.9554V29.766C227.038 15.1361 215.739 3.35657 201.864 3.35657Z" fill="#3D316A"/>
<path d="M201.933 21.1116C198.018 21.1116 194.859 24.2711 194.859 28.1862C194.859 32.1012 198.018 35.2607 201.933 35.2607C205.848 35.2607 209.008 32.1012 209.008 28.1862C209.008 24.2711 205.848 21.1116 201.933 21.1116Z" fill="#3D316A"/>
<path d="M292.254 18.845C296.161 18.845 299.329 15.6776 299.329 11.7704C299.329 7.8632 296.161 4.6958 292.254 4.6958C288.347 4.6958 285.18 7.8632 285.18 11.7704C285.18 15.6776 288.347 18.845 292.254 18.845Z" fill="#3D316A"/>
<path d="M292.254 23.3096C288.339 23.3096 285.18 26.4691 285.18 30.3841V50.4059C285.18 54.321 288.339 57.4805 292.254 57.4805C296.169 57.4805 299.329 54.321 299.329 50.4059V30.3841C299.329 26.4691 296.135 23.3096 292.254 23.3096Z" fill="#3D316A"/>
<path d="M30.4604 3.66556C31.3533 3.66556 32.1775 3.90596 32.9674 4.35242L34.7189 5.3827H34.7532H34.7876L97.9093 41.2364L97.978 41.2707C99.5234 42.1636 100.451 43.7777 100.451 45.5979C100.451 47.3837 99.5234 48.9978 97.9437 49.9251L97.8063 50.0281L34.7876 86.5343L32.9674 87.5989C32.1775 88.0454 31.319 88.2858 30.4604 88.2858C28.0564 88.2858 25.4464 86.3626 25.4464 83.2718V83.2374V8.67959C25.4807 5.58875 28.0564 3.66556 30.4604 3.66556ZM30.4604 0.299988C26.0989 0.299988 22.0808 3.76859 22.0808 8.67959V83.2718V83.3061C22.0808 88.1828 26.0989 91.6857 30.4604 91.6857C31.8685 91.6857 33.3109 91.308 34.6502 90.5181L36.4704 89.4534L99.4547 52.9816L99.5921 52.9129C105.156 49.719 105.156 41.6828 99.5921 38.4546L99.4891 38.386L36.436 2.49792L34.6846 1.46764C33.3108 0.677757 31.8685 0.299988 30.4604 0.299988Z" fill="#706F6F"/>
<path d="M46.8076 34.2992C47.2198 34.2992 47.6319 34.4022 48.044 34.6426L63.8759 43.6404C65.0092 44.2929 65.1466 45.3575 65.1466 45.804C65.1466 46.2504 65.0436 47.315 63.9103 47.9675L48.0783 57.137C47.6662 57.3774 47.2541 57.4804 46.842 57.4804C45.64 57.4804 44.335 56.5188 44.335 54.9734V36.8405C44.3006 35.2608 45.6057 34.2992 46.8076 34.2992ZM46.8076 30.9336C43.7512 30.9336 40.9351 33.3719 40.9351 36.8062V54.9391C40.9351 58.3733 43.7512 60.8117 46.8076 60.8117C47.7692 60.8117 48.7995 60.5713 49.7268 60.0218L65.5587 50.8523C69.4738 48.5857 69.4738 42.9192 65.5244 40.6869L49.6924 31.6891C48.7652 31.174 47.7692 30.9336 46.8076 30.9336Z" fill="#706F6F"/>
<path d="M57.0759 34.2992C58.2779 34.2992 59.5829 35.2608 59.5829 36.8062V54.9391C59.5829 56.4845 58.2779 57.4461 57.0759 57.4461C56.6295 57.4461 56.2173 57.3431 55.8396 57.1027L40.0076 47.9332C38.8743 47.2807 38.7713 46.1817 38.7713 45.7696C38.7713 45.3232 38.9087 44.2585 40.042 43.606L55.8739 34.6083C56.2517 34.4022 56.6638 34.2992 57.0759 34.2992ZM57.0759 30.9336C56.1143 30.9336 55.1184 31.174 54.1911 31.7235L38.3592 40.7212C34.4098 42.9535 34.4098 48.62 38.3248 50.8867L54.1568 60.0561C55.1184 60.6056 56.1143 60.846 57.0759 60.846C60.1324 60.846 62.9485 58.4077 62.9485 54.9734V36.8405C62.9485 33.3719 60.1667 30.9336 57.0759 30.9336Z" fill="#706F6F"/>
<path d="M73.4231 3.66556C75.8271 3.66556 78.4371 5.58875 78.4371 8.67959V83.2718V83.3061C78.4371 86.3969 75.8271 88.3201 73.4231 88.3201C72.5645 88.3201 71.7059 88.0797 70.9161 87.6333L69.0616 86.5687L6.07718 50.0625L5.93981 49.9938C4.39439 49.1009 3.4328 47.4868 3.4328 45.6666C3.4328 43.8808 4.36005 42.2667 5.90547 41.3394L5.97415 41.3051L69.1302 5.41704H69.1646H69.1989L70.9504 4.38676C71.7059 3.90596 72.5645 3.66556 73.4231 3.66556ZM73.4231 0.299988C72.015 0.299988 70.5726 0.677757 69.1989 1.46764L67.4475 2.49792L4.32571 38.386L4.22268 38.4546C-1.34083 41.6828 -1.34083 49.719 4.22268 52.9129L4.36005 52.9816L67.3444 89.4534L69.1646 90.5181C70.5383 91.308 71.9807 91.6857 73.3544 91.6857C77.7159 91.6857 81.734 88.1828 81.734 83.3061V83.2718V8.67959C81.8027 3.80293 77.7846 0.299988 73.4231 0.299988Z" fill="#706F6F"/>
<path d="M51.9589 90.8271C27.1635 90.8271 7.00439 70.668 7.00439 45.8726C7.00439 21.0773 27.1635 0.918152 51.9589 0.918152C76.7543 0.918152 96.8791 21.0773 96.8791 45.8726C96.8791 70.668 76.7199 90.8271 51.9589 90.8271ZM51.9589 7.47759C30.8038 7.47759 13.5638 24.7176 13.5638 45.8726C13.5638 67.0277 30.8038 84.2677 51.9589 84.2677C73.1139 84.2677 90.3539 67.0277 90.3539 45.8726C90.3539 24.7176 73.1139 7.47759 51.9589 7.47759Z" fill="#3D316A"/>
<path d="M51.9589 90.8271C27.1635 90.8271 7.00439 70.668 7.00439 45.8726C7.00439 21.0773 27.1635 0.918152 51.9589 0.918152C76.7543 0.918152 96.8791 21.0773 96.8791 45.8726C96.8791 70.668 76.7199 90.8271 51.9589 90.8271ZM51.9589 7.47759C30.8038 7.47759 13.5638 24.7176 13.5638 45.8726C13.5638 67.0277 30.8038 84.2677 51.9589 84.2677C73.1139 84.2677 90.3539 67.0277 90.3539 45.8726C90.3539 24.7176 73.1139 7.47759 51.9589 7.47759Z" fill="#3C3168"/>
</svg>
